{
  "accessors": [
    {
      "bufferView": 2,
      "componentType": 5126,
      "count": 1180,
      "max": [
        -0.002477554138749838,
        0.5615378618240356,
        -0.12146937847137451
      ],
      "min": [
        -0.15153144299983978,
        -0.40038299560546875,
        -1.028926134109497
      ],
      "type": "VEC3"
    },
    {
      "bufferView": 2,
      "byteOffset": 14160,
      "componentType": 5126,
      "count": 1180,
      "max": [
        1.0,
        1.0,
        1.0
      ],
      "min": [
        -1.0,
        -0.9919567108154297,
        -0.9998645186424255
      ],
      "type": "VEC3"
    },
    {
      "bufferView": 3,
      "componentType": 5126,
      "count": 1180,
      "max": [
        1.0,
        1.0,
        0.9885481595993042,
        -1.0
      ],
      "min": [
        -1.0,
        -1.0,
        -0.9912490248680115,
        -1.0
      ],
      "type": "VEC4"
    },
    {
      "bufferView": 1,
      "componentType": 5126,
      "count": 1180,
      "max": [
        0.9997562766075134,
        0.988455593585968
      ],
      "min": [
        0.0002436818613205105,
        0.00024365156423300505
      ],
      "type": "VEC2"
    },
    {
      "bufferView": 1,
      "byteOffset": 9440,
      "componentType": 5126,
      "count": 1180,
      "max": [
        0.9997562766075134,
        0.988455593585968
      ],
      "min": [
        0.0002436818613205105,
        0.00024365156423300505
      ],
      "type": "VEC2"
    },
    {
      "bufferView": 1,
      "byteOffset": 18880,
      "componentType": 5126,
      "count": 1180,
      "max": [
        0.9997562766075134,
        0.988455593585968
      ],
      "min": [
        0.0002436818613205105,
        0.00024365156423300505
      ],
      "type": "VEC2"
    },
    {
      "bufferView": 0,
      "componentType": 5125,
      "count": 4008,
      "type": "SCALAR"
    },
    {
      "bufferView": 2,
      "byteOffset": 28320,
      "componentType": 5126,
      "count": 1584,
      "max": [
        0.009119031019508839,
        0.5237284898757935,
        1.3010659217834473
      ],
      "min": [
        -0.16156210005283356,
        -0.7550690770149231,
        -0.028033554553985596
      ],
      "type": "VEC3"
    },
    {
      "bufferView": 2,
      "byteOffset": 47328,
      "componentType": 5126,
      "count": 1584,
      "max": [
        1.0,
        0.9710851907730103,
        0.997875452041626
      ],
      "min": [
        -1.0,
        -0.9881118535995483,
        -0.9978752136230469
      ],
      "type": "VEC3"
    },
    {
      "bufferView": 3,
      "byteOffset": 18880,
      "componentType": 5126,
      "count": 1584,
      "max": [
        0.9996179342269897,
        0.9133018255233765,
        0.9445179104804993,
        1.0
      ],
      "min": [
        -1.0,
        -0.8923048377037048,
        -0.9593086838722229,
        -1.0
      ],
      "type": "VEC4"
    },
    {
      "bufferView": 1,
      "byteOffset": 28320,
      "componentType": 5126,
      "count": 1584,
      "max": [
        0.992411196231842,
        0.9995059967041016
      ],
      "min": [
        0.0004940407234244049,
        0.0004940105718560517
      ],
      "type": "VEC2"
    },
    {
      "bufferView": 1,
      "byteOffset": 40992,
      "componentType": 5126,
      "count": 1584,
      "max": [
        0.992411196231842,
        0.9995059967041016
      ],
      "min": [
        0.0004940407234244049,
        0.0004940105718560517
      ],
      "type": "VEC2"
    },
    {
      "bufferView": 1,
      "byteOffset": 53664,
      "componentType": 5126,
      "count": 1584,
      "max": [
        0.992411196231842,
        0.9995059967041016
      ],
      "min": [
        0.0004940407234244049,
        0.0004940105718560517
      ],
      "type": "VEC2"
    },
    {
      "bufferView": 0,
      "byteOffset": 16032,
      "componentType": 5125,
      "count": 5961,
      "type": "SCALAR"
    }
  ],
  "asset": {
    "extras": {
      "author": "diogotdias (https://sketchfab.com/diogotdias)",
      "license": "CC-BY-NC-4.0 (http://creativecommons.org/licenses/by-nc/4.0/)",
      "source": "https://sketchfab.com/3d-models/livros-antigos-old-books-8430d8296eb34a0d9602158f2c9a16f3",
      "title": "Livros Antigos | Old Books"
    },
    "generator": "Sketchfab-15.45.0",
    "version": "2.0"
  },
  "bufferViews": [
    {
      "buffer": 0,
      "byteLength": 39876,
      "name": "floatBufferViews",
      "target": 34963
    },
    {
      "buffer": 0,
      "byteLength": 66336,
      "byteOffset": 39876,
      "byteStride": 8,
      "name": "floatBufferViews",
      "target": 34962
    },
    {
      "buffer": 0,
      "byteLength": 66336,
      "byteOffset": 106212,
      "byteStride": 12,
      "name": "floatBufferViews",
      "target": 34962
    },
    {
      "buffer": 0,
      "byteLength": 44224,
      "byteOffset": 172548,
      "byteStride": 16,
      "name": "floatBufferViews",
      "target": 34962
    }
  ],
  "buffers": [
    {
      "byteLength": 216772,
      "uri": "scene.bin"
    }
  ],
  "images": [
    {
      "uri": "textures/Livro_Fechado_2K_baseColor.jpeg"
    },
    {
      "uri": "textures/Livro_Fechado_2K_metallicRoughness.png"
    },
    {
      "uri": "textures/Livro_Fechado_2K_normal.png"
    },
    {
      "uri": "textures/Livro_Aberto_2K_baseColor.png"
    },
    {
      "uri": "textures/Livro_Aberto_2K_metallicRoughness.png"
    },
    {
      "uri": "textures/Livro_Aberto_2K_normal.png"
    }
  ],
  "materials": [
    {
      "doubleSided": true,
      "name": "Livro_Fechado_2K",
      "normalTexture": {
        "index": 2
      },
      "occlusionTexture": {
        "index": 1
      },
      "pbrMetallicRoughness": {
        "baseColorTexture": {
          "index": 0
        },
        "metallicRoughnessTexture": {
          "index": 1
        }
      }
    },
    {
      "doubleSided": true,
      "name": "Livro_Aberto_2K",
      "normalTexture": {
        "index": 5
      },
      "occlusionTexture": {
        "index": 4
      },
      "pbrMetallicRoughness": {
        "baseColorTexture": {
          "index": 3
        },
        "metallicRoughnessTexture": {
          "index": 4
        }
      }
    }
  ],
  "meshes": [
    {
      "name": "Livros_Fechados_Livro_Fechado_2K_0",
      "primitives": [
        {
          "attributes": {
            "NORMAL": 1,
            "POSITION": 0,
            "TANGENT": 2,
            "TEXCOORD_0": 3,
            "TEXCOORD_1": 4,
            "TEXCOORD_2": 5
          },
          "indices": 6,
          "material": 0,
          "mode": 4
        }
      ]
    },
    {
      "name": "Livros_Fechados_Livro_Aberto_2K_0",
      "primitives": [
        {
          "attributes": {
            "NORMAL": 8,
            "POSITION": 7,
            "TANGENT": 9,
            "TEXCOORD_0": 10,
            "TEXCOORD_1": 11,
            "TEXCOORD_2": 12
          },
          "indices": 13,
          "material": 1,
          "mode": 4
        }
      ]
    }
  ],
  "nodes": [
    {
      "children": [
        1
      ],
      "matrix": [
        1.0,
        0.0,
        0.0,
        0.0,
        0.0,
        2.220446049250313e-16,
        -1.0,
        0.0,
        0.0,
        1.0,
        2.220446049250313e-16,
        0.0,
        0.0,
        0.0,
        0.0,
        1.0
      ],
      "name": "Sketchfab_model"
    },
    {
      "children": [
        2
      ],
      "matrix": [
        0.009999999776482582,
        0.0,
        0.0,
        0.0,
        0.0,
        0.0,
        0.009999999776482582,
        0.0,
        0.0,
        -0.009999999776482582,
        0.0,
        0.0,
        0.0,
        0.0,
        0.0,
        1.0
      ],
      "name": "a70178074a2544ae9f3cac647e27f0ba.fbx"
    },
    {
      "children": [
        3
      ],
      "name": "RootNode"
    },
    {
      "children": [
        4,
        5
      ],
      "matrix": [
        2.737162594438068e-06,
        -36.254817962646385,
        -4.926730983598065e-07,
        0.0,
        -29.125212768993354,
        -1.9055002827010152e-06,
        -21.590132159519023,
        0.0,
        21.59013215951893,
        2.0257972680076428e-06,
        -29.12521276899342,
        0.0,
        0.0,
        0.0,
        0.0,
        1.0
      ],
      "name": "Livros_Fechados"
    },
    {
      "mesh": 0,
      "name": "Livros_Fechados_Livro_Fechado_2K_0"
    },
    {
      "mesh": 1,
      "name": "Livros_Fechados_Livro_Aberto_2K_0"
    }
  ],
  "samplers": [
    {
      "magFilter": 9729,
      "minFilter": 9987,
      "wrapS": 10497,
      "wrapT": 10497
    }
  ],
  "scene": 0,
  "scenes": [
    {
      "name": "Sketchfab_Scene",
      "nodes": [
        0
      ]
    }
  ],
  "textures": [
    {
      "sampler": 0,
      "source": 0
    },
    {
      "sampler": 0,
      "source": 1
    },
    {
      "sampler": 0,
      "source": 2
    },
    {
      "sampler": 0,
      "source": 3
    },
    {
      "sampler": 0,
      "source": 4
    },
    {
      "sampler": 0,
      "source": 5
    }
  ]
}
